<mxfile host="app.diagrams.net" agent="Mozilla/5.0 (Windows NT 10.0; Win64; x64) AppleWebKit/537.36 (KHTML, like Gecko) Chrome/130.0.0.0 Safari/537.36" version="24.8.3">
  <diagram id="I359MItvWsh4OVZl2oIO" name="Seite-1">
    <mxGraphModel dx="1434" dy="772" grid="1" gridSize="10" guides="1" tooltips="1" connect="1" arrows="1" fold="1" page="1" pageScale="1" pageWidth="827" pageHeight="1169" math="0" shadow="0">
      <root>
        <mxCell id="0" />
        <mxCell id="1" parent="0" />
        <mxCell id="ifa1-IcgKsluYtl1UEuV-2" value="" style="rounded=0;whiteSpace=wrap;html=1;" vertex="1" parent="1">
          <mxGeometry x="230" y="100" width="340" height="520" as="geometry" />
        </mxCell>
        <mxCell id="ifa1-IcgKsluYtl1UEuV-3" value="&lt;h1&gt;&lt;font style=&quot;font-size: 27px;&quot;&gt;Lernhelfer&lt;/font&gt;&lt;/h1&gt;" style="rounded=0;whiteSpace=wrap;html=1;" vertex="1" parent="1">
          <mxGeometry x="230" y="100" width="340" height="80" as="geometry" />
        </mxCell>
        <mxCell id="ifa1-IcgKsluYtl1UEuV-4" value="" style="rounded=0;whiteSpace=wrap;html=1;" vertex="1" parent="1">
          <mxGeometry x="230" y="560" width="340" height="60" as="geometry" />
        </mxCell>
        <mxCell id="ifa1-IcgKsluYtl1UEuV-9" value="" style="rounded=1;whiteSpace=wrap;html=1;" vertex="1" parent="1">
          <mxGeometry x="230" y="560" width="85" height="60" as="geometry" />
        </mxCell>
        <mxCell id="ifa1-IcgKsluYtl1UEuV-5" value="" style="points=[[0.145,0.145,0],[0.5,0,0],[0.855,0.145,0],[1,0.5,0],[0.855,0.855,0],[0.5,1,0],[0.145,0.855,0],[0,0.5,0]];shape=mxgraph.bpmn.event;html=1;verticalLabelPosition=bottom;labelBackgroundColor=#ffffff;verticalAlign=top;align=center;perimeter=ellipsePerimeter;outlineConnect=0;aspect=fixed;outline=standard;symbol=timer;" vertex="1" parent="1">
          <mxGeometry x="258.75" y="570.63" width="27.5" height="27.5" as="geometry" />
        </mxCell>
        <mxCell id="ifa1-IcgKsluYtl1UEuV-67" value="" style="sketch=0;aspect=fixed;pointerEvents=1;shadow=0;dashed=0;html=1;strokeColor=none;labelPosition=center;verticalLabelPosition=bottom;verticalAlign=top;align=center;fillColor=#00188D;shape=mxgraph.mscae.enterprise.calendar" vertex="1" parent="1">
          <mxGeometry x="344.38" y="574" width="26.25" height="21.53" as="geometry" />
        </mxCell>
        <mxCell id="ifa1-IcgKsluYtl1UEuV-70" value="" style="html=1;verticalLabelPosition=bottom;align=center;labelBackgroundColor=#ffffff;verticalAlign=top;strokeWidth=2;strokeColor=#0080F0;shadow=0;dashed=0;shape=mxgraph.ios7.icons.add;" vertex="1" parent="1">
          <mxGeometry x="516.25" y="575.63" width="22.5" height="22.5" as="geometry" />
        </mxCell>
        <mxCell id="ifa1-IcgKsluYtl1UEuV-73" value="Timer" style="text;html=1;align=center;verticalAlign=middle;whiteSpace=wrap;rounded=0;" vertex="1" parent="1">
          <mxGeometry x="242.5" y="595.53" width="60" height="30" as="geometry" />
        </mxCell>
        <mxCell id="ifa1-IcgKsluYtl1UEuV-74" value="Lernplan" style="text;html=1;align=center;verticalAlign=middle;whiteSpace=wrap;rounded=0;" vertex="1" parent="1">
          <mxGeometry x="327.5" y="595.53" width="60" height="30" as="geometry" />
        </mxCell>
        <mxCell id="ifa1-IcgKsluYtl1UEuV-75" value="Hinzufügen" style="text;html=1;align=center;verticalAlign=middle;whiteSpace=wrap;rounded=0;" vertex="1" parent="1">
          <mxGeometry x="497.5" y="595.53" width="60" height="30" as="geometry" />
        </mxCell>
        <mxCell id="ifa1-IcgKsluYtl1UEuV-77" value="" style="shape=image;html=1;verticalAlign=top;verticalLabelPosition=bottom;labelBackgroundColor=#ffffff;imageAspect=0;aspect=fixed;image=https://cdn0.iconfinder.com/data/icons/job-seeker/256/test_job_seeker_employee_unemployee_work-128.png" vertex="1" parent="1">
          <mxGeometry x="426.75" y="571.13" width="31.5" height="31.5" as="geometry" />
        </mxCell>
        <mxCell id="ifa1-IcgKsluYtl1UEuV-78" value="Prüfungsplan" style="text;html=1;align=center;verticalAlign=middle;whiteSpace=wrap;rounded=0;" vertex="1" parent="1">
          <mxGeometry x="412.5" y="595.53" width="60" height="30" as="geometry" />
        </mxCell>
        <mxCell id="ifa1-IcgKsluYtl1UEuV-83" value="" style="verticalLabelPosition=bottom;verticalAlign=top;html=1;shape=mxgraph.basic.donut;dx=10;strokeColor=none;fillColor=#10739E;fontSize=10;align=center;fillOpacity=20;" vertex="1" parent="1">
          <mxGeometry x="335" y="295" width="130" height="130" as="geometry" />
        </mxCell>
        <mxCell id="ifa1-IcgKsluYtl1UEuV-84" value="10:55" style="verticalLabelPosition=middle;verticalAlign=middle;html=1;shape=mxgraph.basic.partConcEllipse;startAngle=0;endAngle=0.65;arcWidth=0.2;strokeColor=none;fillColor=#10739E;fontSize=22;fontColor=#10739E;align=center;fontStyle=1;whiteSpace=wrap;" vertex="1" parent="ifa1-IcgKsluYtl1UEuV-83">
          <mxGeometry width="130" height="130" as="geometry" />
        </mxCell>
        <mxCell id="ifa1-IcgKsluYtl1UEuV-89" value="" style="html=1;shadow=0;dashed=0;shape=mxgraph.bootstrap.rrect;rSize=5;strokeColor=none;fillColor=#f6f6f6;whiteSpace=wrap;" vertex="1" parent="1">
          <mxGeometry x="262.5" y="500" width="275" height="20" as="geometry" />
        </mxCell>
        <mxCell id="ifa1-IcgKsluYtl1UEuV-90" value="" style="html=1;shadow=0;dashed=0;shape=mxgraph.bootstrap.leftButtonStriped;fillColor=#55BFE0;fontColor=#FFFFFF;whiteSpace=wrap;" vertex="1" parent="ifa1-IcgKsluYtl1UEuV-89">
          <mxGeometry width="50" height="20" as="geometry" />
        </mxCell>
        <mxCell id="ifa1-IcgKsluYtl1UEuV-92" value="" style="endArrow=none;html=1;rounded=0;entryX=0.278;entryY=0;entryDx=0;entryDy=0;entryPerimeter=0;" edge="1" parent="ifa1-IcgKsluYtl1UEuV-89" target="ifa1-IcgKsluYtl1UEuV-89">
          <mxGeometry width="50" height="50" relative="1" as="geometry">
            <mxPoint x="76.5" y="20" as="sourcePoint" />
            <mxPoint x="117.5" as="targetPoint" />
          </mxGeometry>
        </mxCell>
        <mxCell id="ifa1-IcgKsluYtl1UEuV-95" value="&lt;span style=&quot;color: rgba(0, 0, 0, 0); font-family: monospace; font-size: 0px; text-align: start; background-color: rgb(251, 251, 251);&quot;&gt;%3CmxGraphModel%3E%3Croot%3E%3CmxCell%20id%3D%220%22%2F%3E%3CmxCell%20id%3D%221%22%20parent%3D%220%22%2F%3E%3CmxCell%20id%3D%222%22%20value%3D%22%22%20style%3D%22rounded%3D1%3BwhiteSpace%3Dwrap%3Bhtml%3D1%3B%22%20vertex%3D%221%22%20parent%3D%221%22%3E%3CmxGeometry%20x%3D%22315%22%20y%3D%22560%22%20width%3D%2285%22%20height%3D%2260%22%20as%3D%22geometry%22%2F%3E%3C%2FmxCell%3E%3C%2Froot%3E%3C%2FmxGraphModel%3E&lt;/span&gt;" style="edgeLabel;html=1;align=center;verticalAlign=middle;resizable=0;points=[];" vertex="1" connectable="0" parent="ifa1-IcgKsluYtl1UEuV-92">
          <mxGeometry x="0.3995" y="-2" relative="1" as="geometry">
            <mxPoint as="offset" />
          </mxGeometry>
        </mxCell>
        <mxCell id="ifa1-IcgKsluYtl1UEuV-96" value="" style="endArrow=none;html=1;rounded=0;entryX=0.278;entryY=0;entryDx=0;entryDy=0;entryPerimeter=0;" edge="1" parent="ifa1-IcgKsluYtl1UEuV-89">
          <mxGeometry width="50" height="50" relative="1" as="geometry">
            <mxPoint x="108" y="20" as="sourcePoint" />
            <mxPoint x="107.5" as="targetPoint" />
          </mxGeometry>
        </mxCell>
        <mxCell id="ifa1-IcgKsluYtl1UEuV-97" value="&lt;span style=&quot;color: rgba(0, 0, 0, 0); font-family: monospace; font-size: 0px; text-align: start; background-color: rgb(251, 251, 251);&quot;&gt;%3CmxGraphModel%3E%3Croot%3E%3CmxCell%20id%3D%220%22%2F%3E%3CmxCell%20id%3D%221%22%20parent%3D%220%22%2F%3E%3CmxCell%20id%3D%222%22%20value%3D%22%22%20style%3D%22rounded%3D1%3BwhiteSpace%3Dwrap%3Bhtml%3D1%3B%22%20vertex%3D%221%22%20parent%3D%221%22%3E%3CmxGeometry%20x%3D%22315%22%20y%3D%22560%22%20width%3D%2285%22%20height%3D%2260%22%20as%3D%22geometry%22%2F%3E%3C%2FmxCell%3E%3C%2Froot%3E%3C%2FmxGraphModel%3E&lt;/span&gt;" style="edgeLabel;html=1;align=center;verticalAlign=middle;resizable=0;points=[];" vertex="1" connectable="0" parent="ifa1-IcgKsluYtl1UEuV-96">
          <mxGeometry x="0.3995" y="-2" relative="1" as="geometry">
            <mxPoint as="offset" />
          </mxGeometry>
        </mxCell>
        <mxCell id="ifa1-IcgKsluYtl1UEuV-98" value="" style="endArrow=none;html=1;rounded=0;entryX=0.278;entryY=0;entryDx=0;entryDy=0;entryPerimeter=0;" edge="1" parent="ifa1-IcgKsluYtl1UEuV-89">
          <mxGeometry width="50" height="50" relative="1" as="geometry">
            <mxPoint x="178" y="20" as="sourcePoint" />
            <mxPoint x="177.5" as="targetPoint" />
          </mxGeometry>
        </mxCell>
        <mxCell id="ifa1-IcgKsluYtl1UEuV-99" value="&lt;span style=&quot;color: rgba(0, 0, 0, 0); font-family: monospace; font-size: 0px; text-align: start; background-color: rgb(251, 251, 251);&quot;&gt;%3CmxGraphModel%3E%3Croot%3E%3CmxCell%20id%3D%220%22%2F%3E%3CmxCell%20id%3D%221%22%20parent%3D%220%22%2F%3E%3CmxCell%20id%3D%222%22%20value%3D%22%22%20style%3D%22rounded%3D1%3BwhiteSpace%3Dwrap%3Bhtml%3D1%3B%22%20vertex%3D%221%22%20parent%3D%221%22%3E%3CmxGeometry%20x%3D%22315%22%20y%3D%22560%22%20width%3D%2285%22%20height%3D%2260%22%20as%3D%22geometry%22%2F%3E%3C%2FmxCell%3E%3C%2Froot%3E%3C%2FmxGraphModel%3E&lt;/span&gt;" style="edgeLabel;html=1;align=center;verticalAlign=middle;resizable=0;points=[];" vertex="1" connectable="0" parent="ifa1-IcgKsluYtl1UEuV-98">
          <mxGeometry x="0.3995" y="-2" relative="1" as="geometry">
            <mxPoint as="offset" />
          </mxGeometry>
        </mxCell>
        <mxCell id="ifa1-IcgKsluYtl1UEuV-100" value="" style="endArrow=none;html=1;rounded=0;entryX=0.278;entryY=0;entryDx=0;entryDy=0;entryPerimeter=0;" edge="1" parent="ifa1-IcgKsluYtl1UEuV-89">
          <mxGeometry width="50" height="50" relative="1" as="geometry">
            <mxPoint x="208" y="20" as="sourcePoint" />
            <mxPoint x="207.5" as="targetPoint" />
          </mxGeometry>
        </mxCell>
        <mxCell id="ifa1-IcgKsluYtl1UEuV-101" value="&lt;span style=&quot;color: rgba(0, 0, 0, 0); font-family: monospace; font-size: 0px; text-align: start; background-color: rgb(251, 251, 251);&quot;&gt;%3CmxGraphModel%3E%3Croot%3E%3CmxCell%20id%3D%220%22%2F%3E%3CmxCell%20id%3D%221%22%20parent%3D%220%22%2F%3E%3CmxCell%20id%3D%222%22%20value%3D%22%22%20style%3D%22rounded%3D1%3BwhiteSpace%3Dwrap%3Bhtml%3D1%3B%22%20vertex%3D%221%22%20parent%3D%221%22%3E%3CmxGeometry%20x%3D%22315%22%20y%3D%22560%22%20width%3D%2285%22%20height%3D%2260%22%20as%3D%22geometry%22%2F%3E%3C%2FmxCell%3E%3C%2Froot%3E%3C%2FmxGraphModel%3E&lt;/span&gt;" style="edgeLabel;html=1;align=center;verticalAlign=middle;resizable=0;points=[];" vertex="1" connectable="0" parent="ifa1-IcgKsluYtl1UEuV-100">
          <mxGeometry x="0.3995" y="-2" relative="1" as="geometry">
            <mxPoint as="offset" />
          </mxGeometry>
        </mxCell>
        <mxCell id="ifa1-IcgKsluYtl1UEuV-103" value="Mathematik" style="strokeWidth=1;shadow=0;dashed=0;align=center;html=1;shape=mxgraph.mockup.forms.comboBox;strokeColor=#999999;fillColor=#ddeeff;align=left;fillColor2=#aaddff;mainText=;fontColor=#666666;fontSize=17;spacingLeft=3;" vertex="1" parent="1">
          <mxGeometry x="327.5" y="210" width="150" height="30" as="geometry" />
        </mxCell>
      </root>
    </mxGraphModel>
  </diagram>
</mxfile>
